# xmcd
#
# Track frame offsets:
#	150
#	16940
#	27100
#	44037
#	58922
#	74365
#	84562
#	95175
#	112397
#	120855
#	134680
#	147750
#
# Disc length: 2165 seconds
#
# Revision: 0
# Processed by: cddbd v1.4PL0 Copyright (c) Steve Scherf et al.
# Submitted via: EasyCDDAExtractor 4.6.0.1
#
DISCID=b308730c
DTITLE=The Billy's - American Lounge
DYEAR=1900
DGENRE=
TTITLE0=Everyday Joe
TTITLE1=Monitor Lizard
TTITLE2=Take The Harley
TTITLE3=Road
TTITLE4=Some Hearts
TTITLE5=Hot Little #
TTITLE6=Buy The World
TTITLE7=Seven
TTITLE8=Red Hat
TTITLE9=Come Through
TTITLE10=Anhedonia
TTITLE11=Cavanaugh Hat
EXTD=
EXTT0=
EXTT1=
EXTT2=
EXTT3=
EXTT4=
EXTT5=
EXTT6=
EXTT7=
EXTT8=
EXTT9=
EXTT10=
EXTT11=
PLAYORDER=
